<svg width="115" height="116" viewBox="0 0 115 116" fill="none" xmlns="http://www.w3.org/2000/svg">
<g clip-path="url(#clip0_112_36)">
<path d="M106.993 0H7.84663C3.51306 0 0 3.51306 0 7.84663V107.588C0 111.922 3.51306 115.435 7.84663 115.435H106.993C111.327 115.435 114.84 111.922 114.84 107.588V7.84663C114.84 3.51306 111.327 0 106.993 0Z" fill="#EBF9F8"/>
<path fill-rule="evenodd" clip-rule="evenodd" d="M64.0443 52.1219C64.0965 51.7134 64.125 51.2978 64.125 50.875C64.125 45.631 59.869 41.375 54.625 41.375H30.875C25.631 41.375 21.375 45.631 21.375 50.875C21.375 53.7108 22.6195 56.2591 24.5931 58C22.6195 59.7409 21.375 62.2892 21.375 65.125C21.375 67.9608 22.6195 70.5091 24.5931 72.25C22.6195 73.9909 21.375 76.5392 21.375 79.375C21.375 84.619 25.631 88.875 30.875 88.875H54.625C55.5703 88.875 56.4823 88.7373 57.3444 88.4784C61.085 91.687 65.9419 93.625 71.25 93.625H71.3189C83.0846 93.587 92.625 84.0229 92.625 72.25C92.625 60.4534 83.0466 50.875 71.25 50.875C68.723 50.875 66.2957 51.3144 64.0443 52.1219ZM71.25 55.625H71.3046C80.4555 55.6559 87.875 63.092 87.875 72.25C87.875 81.408 80.4555 88.8441 71.3046 88.875H71.25C62.0754 88.875 54.625 81.4246 54.625 72.25C54.625 63.0754 62.0754 55.625 71.25 55.625ZM50.0056 74.625H30.875C28.253 74.625 26.125 76.753 26.125 79.375C26.125 81.997 28.253 84.125 30.875 84.125H53.4779C51.6182 81.351 50.3928 78.1115 50.0056 74.625ZM53.4779 60.375H30.875C28.253 60.375 26.125 62.503 26.125 65.125C26.125 67.747 28.253 69.875 30.875 69.875H50.0056C50.3928 66.3885 51.6182 63.1514 53.4779 60.375ZM59.375 50.875C59.375 53.497 57.247 55.625 54.625 55.625H30.875C28.253 55.625 26.125 53.497 26.125 50.875C26.125 48.253 28.253 46.125 30.875 46.125H54.625C57.247 46.125 59.375 48.253 59.375 50.875ZM76 38.0168L75.3041 37.3209C74.3779 36.3946 72.8721 36.3946 71.9459 37.3209C71.0196 38.2471 71.0196 39.7529 71.9459 40.6791L76.6959 45.4291C77.6221 46.3577 79.1279 46.3577 80.0541 45.4291L84.8041 40.6791C85.7304 39.7529 85.7304 38.2471 84.8041 37.3209C83.8779 36.3946 82.3721 36.3946 81.4459 37.3209L80.75 38.0168V24.75C80.75 23.439 79.686 22.375 78.375 22.375C77.064 22.375 76 23.439 76 24.75V38.0168Z" fill="#32BFBD" stroke="#EBF9F8" stroke-width="1.3"/>
<mask id="mask0_112_36" style="mask-type:alpha" maskUnits="userSpaceOnUse" x="59" y="60" width="24" height="24">
<rect x="59" y="60" width="24" height="24" fill="#D9D9D9"/>
</mask>
<g mask="url(#mask0_112_36)">
<path d="M70.0252 81V78.85C69.1419 78.65 68.3794 78.2667 67.7377 77.7C67.096 77.1333 66.6252 76.3333 66.3252 75.3L68.1752 74.55C68.4252 75.35 68.796 75.9583 69.2877 76.375C69.7794 76.7917 70.4252 77 71.2252 77C71.9085 77 72.4877 76.8458 72.9627 76.5375C73.4377 76.2292 73.6752 75.75 73.6752 75.1C73.6752 74.5167 73.4919 74.0542 73.1252 73.7125C72.7585 73.3708 71.9085 72.9833 70.5752 72.55C69.1419 72.1 68.1585 71.5625 67.6252 70.9375C67.0919 70.3125 66.8252 69.55 66.8252 68.65C66.8252 67.5667 67.1752 66.725 67.8752 66.125C68.5752 65.525 69.2919 65.1833 70.0252 65.1V63H72.0252V65.1C72.8585 65.2333 73.546 65.5375 74.0877 66.0125C74.6294 66.4875 75.0252 67.0667 75.2752 67.75L73.4252 68.55C73.2252 68.0167 72.9419 67.6167 72.5752 67.35C72.2085 67.0833 71.7085 66.95 71.0752 66.95C70.3419 66.95 69.7835 67.1125 69.4002 67.4375C69.0169 67.7625 68.8252 68.1667 68.8252 68.65C68.8252 69.2 69.0752 69.6333 69.5752 69.95C70.0752 70.2667 70.9419 70.6 72.1752 70.95C73.3252 71.2833 74.196 71.8125 74.7877 72.5375C75.3794 73.2625 75.6752 74.1 75.6752 75.05C75.6752 76.2333 75.3252 77.1333 74.6252 77.75C73.9252 78.3667 73.0585 78.75 72.0252 78.9V81H70.0252Z" fill="#32BFBD"/>
</g>
</g>
<defs>
<clipPath id="clip0_112_36">
<rect width="115" height="116" fill="white"/>
</clipPath>
</defs>
</svg>
