<svg width="115" height="116" viewBox="0 0 115 116" fill="none" xmlns="http://www.w3.org/2000/svg">
<g clip-path="url(#clip0_112_31)">
<path d="M106.993 0H7.84663C3.51306 0 0 3.51306 0 7.84663V107.588C0 111.922 3.51306 115.435 7.84663 115.435H106.993C111.327 115.435 114.84 111.922 114.84 107.588V7.84663C114.84 3.51306 111.327 0 106.993 0Z" fill="#EBF9F8"/>
<path d="M45.6055 41.7832C45.6055 41.2919 46.0048 40.8926 46.4961 40.8926H64.4392C64.9305 40.8926 65.3298 41.2919 65.3298 41.7832C65.3298 42.2745 64.9305 42.6738 64.4392 42.6738H46.4961C46.0033 42.6738 45.6055 42.2745 45.6055 41.7832ZM42.0341 51.6855H72.3376C72.8289 51.6855 73.2282 51.2862 73.2282 50.7948C73.2282 50.3035 72.8289 49.9042 72.3376 49.9042H42.0341C41.5427 49.9042 41.1434 50.3035 41.1434 50.7948C41.1434 51.2862 41.5427 51.6855 42.0341 51.6855ZM42.0341 60.6956H69.0141C69.5054 60.6956 69.9047 60.2963 69.9047 59.805C69.9047 59.3137 69.5054 58.9144 69.0141 58.9144H42.0341C41.5427 58.9144 41.1434 59.3137 41.1434 59.805C41.1434 60.2963 41.5427 60.6956 42.0341 60.6956ZM42.0341 69.7073H68.1413C68.6326 69.7073 69.0319 69.308 69.0319 68.8166C69.0319 68.3253 68.6326 67.926 68.1413 67.926H42.0341C41.5427 67.926 41.1434 68.3253 41.1434 68.8166C41.1434 69.308 41.5427 69.7073 42.0341 69.7073ZM62.5066 76.9362H42.0341C41.5427 76.9362 41.1434 77.3355 41.1434 77.8268C41.1434 78.3181 41.5427 78.7174 42.0341 78.7174H62.5066C62.9979 78.7174 63.3972 78.3181 63.3972 77.8268C63.3972 77.3355 62.9979 76.9362 62.5066 76.9362ZM93.7734 81.137C93.7734 88.1046 87.2838 93.7734 79.3067 93.7734C74.3059 93.7734 69.8898 91.5454 67.2907 88.1655H33.965C33.4737 88.1655 33.0744 87.7662 33.0744 87.2748V44.9954C27.0448 44.7104 22.2266 39.717 22.2266 33.6177C22.2266 27.3373 27.3373 22.2266 33.6177 22.2266C38.1361 22.2266 42.0489 24.8717 43.8895 28.694H70.9883V28.6955C71.2198 28.6955 71.4484 28.7845 71.6177 28.9538L80.5076 37.8422C80.6783 38.0129 80.7659 38.24 80.7659 38.4716H80.7673V54.2594C82.3452 54.623 83.8252 55.2524 85.1908 56.152C85.4595 56.3286 85.6123 56.6359 85.5901 56.958C85.4209 59.3968 84.7841 61.5105 83.6441 63.412V65.8716C84.1621 66.3956 84.7069 66.93 85.2828 67.4926C89.2624 71.3905 93.7734 75.8036 93.7734 81.137ZM83.7687 57.3632C81.8242 56.1965 79.6912 55.6398 77.2791 55.674C77.6902 58.0609 78.5185 60.2325 79.7936 62.2765H82.2473C83.0785 60.8144 83.5802 59.1994 83.7687 57.3632ZM77.7303 62.2765C76.9629 60.8827 76.3647 59.4116 75.9461 57.8723C75.0896 57.5725 74.2628 57.6883 73.3158 58.2509C74.055 59.7709 75.0302 61.1187 76.2192 62.2765H77.7303ZM76.7491 65.4679H81.8628V64.0577H76.7491V65.4679ZM71.8789 37.5839H77.7273L71.8789 31.7355V37.5839ZM33.6177 43.229C38.9169 43.229 43.2275 38.9184 43.2275 33.6191C43.2275 28.3199 38.9169 24.0093 33.6177 24.0093C28.3184 24.0093 24.0078 28.3184 24.0078 33.6177C24.0078 38.9169 28.3184 43.229 33.6177 43.229ZM66.1477 86.3842C65.3076 84.7841 64.84 83.0073 64.84 81.1355C64.84 75.8036 69.351 71.3891 73.3291 67.4955C73.9051 66.9315 74.4498 66.3971 74.9679 65.8731V63.5471C73.442 62.0598 72.2322 60.2904 71.3727 58.282C71.2109 57.9035 71.3297 57.4612 71.6607 57.2163C72.9862 56.2336 74.2613 55.818 75.5216 55.959C75.4637 55.6205 75.4117 55.2806 75.3687 54.9377C75.339 54.6958 75.4088 54.4523 75.5631 54.2638C75.7175 54.0753 75.9416 53.958 76.1851 53.9402C77.147 53.8675 78.0806 53.8794 78.9861 53.9699V39.3637H70.9883C70.497 39.3637 70.0977 38.9644 70.0977 38.473V30.4752H44.5649C44.8514 31.4742 45.0087 32.5281 45.0087 33.6177C45.0087 39.4809 40.5556 44.3215 34.8541 44.9405V86.3842H66.1477ZM91.9922 81.137C91.9922 76.5532 87.7662 72.4177 84.0374 68.7691C83.5001 68.2437 82.9895 67.7434 82.4981 67.2491H76.1138C75.6225 67.7434 75.1119 68.2437 74.5745 68.7691C70.8458 72.4177 66.6198 76.5532 66.6198 81.1355C66.6198 87.1219 72.3109 91.9907 79.3052 91.9907C86.2996 91.9907 91.9922 87.1219 91.9922 81.137ZM36.7512 38.0114C36.9248 38.1851 37.1534 38.2727 37.3805 38.2727C37.6077 38.2727 37.8363 38.1851 38.0099 38.0114C38.3573 37.6641 38.3573 37.1 38.0099 36.7527L34.8764 33.6191L38.0099 30.4856C38.3573 30.1383 38.3573 29.5742 38.0099 29.2269C37.6626 28.8795 37.0985 28.8795 36.7497 29.2269L33.6177 32.3589L30.4856 29.2254C30.1383 28.878 29.5742 28.878 29.2254 29.2254C28.878 29.5727 28.878 30.1368 29.2254 30.4841L32.3589 33.6177L29.2254 36.7512C28.878 37.0985 28.878 37.6626 29.2254 38.0099C29.3991 38.1836 29.6277 38.2712 29.8548 38.2712C30.0819 38.2712 30.3105 38.1836 30.4841 38.0099L33.6177 34.8764L36.7512 38.0114Z" fill="#32BFBD" stroke="#32BFBD"/>
<mask id="mask0_112_31" style="mask-type:alpha" maskUnits="userSpaceOnUse" x="68" y="68" width="24" height="24">
<rect x="68" y="68" width="24" height="24" fill="#D9D9D9"/>
</mask>
<g mask="url(#mask0_112_31)">
<path d="M79.0252 89V86.85C78.1419 86.65 77.3794 86.2667 76.7377 85.7C76.096 85.1333 75.6252 84.3333 75.3252 83.3L77.1752 82.55C77.4252 83.35 77.796 83.9583 78.2877 84.375C78.7794 84.7917 79.4252 85 80.2252 85C80.9085 85 81.4877 84.8458 81.9627 84.5375C82.4377 84.2292 82.6752 83.75 82.6752 83.1C82.6752 82.5167 82.4919 82.0542 82.1252 81.7125C81.7585 81.3708 80.9085 80.9833 79.5752 80.55C78.1419 80.1 77.1585 79.5625 76.6252 78.9375C76.0919 78.3125 75.8252 77.55 75.8252 76.65C75.8252 75.5667 76.1752 74.725 76.8752 74.125C77.5752 73.525 78.2919 73.1833 79.0252 73.1V71H81.0252V73.1C81.8585 73.2333 82.546 73.5375 83.0877 74.0125C83.6294 74.4875 84.0252 75.0667 84.2752 75.75L82.4252 76.55C82.2252 76.0167 81.9419 75.6167 81.5752 75.35C81.2085 75.0833 80.7085 74.95 80.0752 74.95C79.3419 74.95 78.7835 75.1125 78.4002 75.4375C78.0169 75.7625 77.8252 76.1667 77.8252 76.65C77.8252 77.2 78.0752 77.6333 78.5752 77.95C79.0752 78.2667 79.9419 78.6 81.1752 78.95C82.3252 79.2833 83.196 79.8125 83.7877 80.5375C84.3794 81.2625 84.6752 82.1 84.6752 83.05C84.6752 84.2333 84.3252 85.1333 83.6252 85.75C82.9252 86.3667 82.0585 86.75 81.0252 86.9V89H79.0252Z" fill="#32BFBD"/>
</g>
</g>
<defs>
<clipPath id="clip0_112_31">
<rect width="115" height="116" fill="white"/>
</clipPath>
</defs>
</svg>
