<svg width="115" height="116" viewBox="0 0 115 116" fill="none" xmlns="http://www.w3.org/2000/svg">
<rect width="114.84" height="115.435" rx="7.84663" fill="#EBF9F8"/>
<path d="M92.3553 73.3422H90.1215V37.7782C90.1195 35.7276 89.304 33.7615 87.854 32.3115C86.4039 30.8615 84.4379 30.046 82.3873 30.0439H32.6128C30.5621 30.046 28.5961 30.8615 27.146 32.3115C25.696 33.7615 24.8805 35.7276 24.8785 37.7782V73.3422H22.6447C21.8193 73.3433 21.0279 73.6716 20.4443 74.2553C19.8606 74.8389 19.5323 75.6303 19.5312 76.4557V79.8893C19.5346 81.7647 20.2811 83.5622 21.6071 84.8883C22.9332 86.2144 24.7308 86.9608 26.6061 86.9642H88.3939C90.2692 86.9608 92.0668 86.2144 93.3929 84.8883C94.7189 83.5622 95.4654 81.7647 95.4688 79.8893V76.4557C95.4677 75.6303 95.1394 74.8389 94.5557 74.2553C93.9721 73.6716 93.1807 73.3433 92.3553 73.3422ZM27.4098 37.7719C27.4111 36.3923 27.9597 35.0697 28.9352 34.0943C29.9106 33.1188 31.2332 32.5702 32.6128 32.5689H82.3873C83.7668 32.5702 85.0894 33.1188 86.0648 34.0943C87.0403 35.0697 87.5889 36.3923 87.5902 37.7719V73.3359H27.4098V37.7719ZM92.9375 79.8893C92.9365 81.0941 92.4575 82.2491 91.6056 83.101C90.7537 83.9529 89.5986 84.4319 88.3939 84.4329H26.6061C25.4014 84.4319 24.2463 83.9529 23.3944 83.101C22.5425 82.2491 22.0635 81.0941 22.0625 79.8893V76.4557C22.0625 76.3013 22.1238 76.1532 22.233 76.044C22.3422 75.9348 22.4903 75.8735 22.6447 75.8735H92.3553C92.5097 75.8735 92.6578 75.9348 92.767 76.044C92.8762 76.1532 92.9375 76.3013 92.9375 76.4557V79.8893Z" fill="#32BFBD" stroke="#32BFBD"/>
<path d="M63.2483 52.8481V52.671C63.2473 51.7702 62.8891 50.9067 62.2523 50.2696C61.6155 49.6326 60.7521 49.2741 59.8513 49.2728H51.7134C52.1967 47.0665 52.4842 44.8218 52.5727 42.5649C52.6009 42.0016 52.5142 41.4385 52.3179 40.9097C52.1216 40.381 51.8199 39.8976 51.431 39.4891C51.0421 39.0806 50.5743 38.7554 50.0558 38.5333C49.5374 38.3112 48.9792 38.1969 48.4151 38.1973H48.1696C47.8396 38.1985 47.5131 38.2652 47.209 38.3933C46.9048 38.5215 46.6291 38.7087 46.3977 38.944C46.1675 39.1768 45.9867 39.4538 45.8662 39.7583C45.7457 40.0628 45.688 40.3885 45.6966 40.7159C45.8367 42.4624 45.506 44.2145 44.739 45.7898C43.9719 47.3651 42.7965 48.706 41.3352 49.6727V49.6613C41.3352 49.3256 41.2019 49.0037 40.9645 48.7664C40.7272 48.529 40.4053 48.3957 40.0696 48.3957H33.6719C33.3362 48.3957 33.0143 48.529 32.7769 48.7664C32.5396 49.0037 32.4062 49.3256 32.4062 49.6613V68.6254C32.4062 68.9611 32.5396 69.283 32.7769 69.5204C33.0143 69.7577 33.3362 69.891 33.6719 69.891H40.0658C40.3146 69.891 40.5579 69.8176 40.7652 69.6801C40.9725 69.5425 41.1347 69.3469 41.2315 69.1178L41.7453 69.3911C42.581 69.8349 43.5126 70.0673 44.4588 70.0682H58.43C59.3309 70.0676 60.1946 69.7095 60.8317 69.0726C61.4688 68.4358 61.8272 67.5721 61.8282 66.6713V66.2093C61.8284 65.6948 61.7111 65.1871 61.4853 64.7248C62.1564 64.2549 62.635 63.5582 62.8328 62.7631C63.0305 61.9681 62.934 61.1283 62.561 60.3989C62.9845 60.0831 63.3284 59.6727 63.5653 59.2005C63.8022 58.7283 63.9255 58.2073 63.9254 57.679V57.1082C63.9265 56.6283 63.8255 56.1536 63.6291 55.7156C63.4327 55.2777 63.1454 54.8865 62.7863 54.5681C63.091 54.0463 63.2505 53.4524 63.2483 52.8481ZM38.8002 67.3598H34.9375V50.9168H38.8002V67.3598ZM61.3916 57.6841C61.3918 57.7977 61.3695 57.9103 61.3262 58.0153C61.2828 58.1203 61.2191 58.2157 61.1389 58.2962C61.0586 58.3766 60.9632 58.4403 60.8583 58.4839C60.7533 58.5274 60.6408 58.5498 60.5272 58.5498H54.4876C54.1519 58.5498 53.83 58.6831 53.5927 58.9205C53.3553 59.1578 53.222 59.4797 53.222 59.8154C53.222 60.1511 53.3553 60.473 53.5927 60.7103C53.83 60.9477 54.1519 61.081 54.4876 61.081H59.5311C59.7607 61.081 59.9809 61.1722 60.1433 61.3346C60.3056 61.4969 60.3968 61.7171 60.3968 61.9467C60.3968 62.1763 60.3056 62.3965 60.1433 62.5589C59.9809 62.7212 59.7607 62.8124 59.5311 62.8124H56.2329C55.8972 62.8124 55.5753 62.9457 55.338 63.1831C55.1006 63.4205 54.9673 63.7424 54.9673 64.078C54.9673 64.4137 55.1006 64.7356 55.338 64.973C55.5753 65.2103 55.8972 65.3437 56.2329 65.3437H58.4351C58.6648 65.3437 58.8851 65.4348 59.0477 65.5971C59.2102 65.7594 59.3017 65.9796 59.302 66.2093V66.6713C59.3017 66.901 59.2102 67.1212 59.0477 67.2835C58.8851 67.4458 58.6648 67.537 58.4351 67.537H44.4626C43.933 67.5359 43.4117 67.4056 42.9438 67.1573L41.3416 66.3043V52.5393C43.5342 51.4819 45.3584 49.7897 46.5771 47.6824C47.7958 45.5751 48.3529 43.1501 48.1759 40.7222H48.4215C48.6428 40.7221 48.8618 40.767 49.0651 40.8542C49.2685 40.9415 49.452 41.0692 49.6044 41.2297C49.7568 41.3901 49.8749 41.5799 49.9516 41.7875C50.0282 41.9951 50.0618 42.2161 50.0503 42.4371C49.9751 45.0456 49.5725 47.6342 48.8518 50.1422C48.7892 50.3323 48.7725 50.5345 48.8031 50.7322C48.8338 50.9299 48.9109 51.1176 49.0281 51.2798C49.1453 51.4419 49.2993 51.574 49.4774 51.6651C49.6556 51.7563 49.8528 51.8039 50.0529 51.804H59.8577C60.0874 51.8043 60.3076 51.8958 60.4699 52.0584C60.6322 52.2209 60.7233 52.4412 60.7233 52.671V52.8481C60.7233 53.0777 60.6321 53.2979 60.4698 53.4603C60.3074 53.6226 60.0872 53.7138 59.8577 53.7138H53.3865C53.0508 53.7138 52.7289 53.8472 52.4916 54.0845C52.2542 54.3219 52.1209 54.6438 52.1209 54.9795C52.1209 55.3151 52.2542 55.637 52.4916 55.8744C52.7289 56.1117 53.0508 56.2451 53.3865 56.2451H60.5272C60.7565 56.2454 60.9764 56.3368 61.1385 56.4991C61.3006 56.6614 61.3916 56.8814 61.3916 57.1108V57.6841Z" fill="#32BFBD" stroke="#32BFBD"/>
<path d="M84.9777 38.6592H73.2187C72.8831 38.6592 72.5612 38.7925 72.3238 39.0299C72.0865 39.2672 71.9531 39.5891 71.9531 39.9248C71.9531 40.2605 72.0865 40.5824 72.3238 40.8197C72.5612 41.0571 72.8831 41.1904 73.2187 41.1904H84.9777C85.3133 41.1904 85.6353 41.0571 85.8726 40.8197C86.11 40.5824 86.2433 40.2605 86.2433 39.9248C86.2433 39.5891 86.11 39.2672 85.8726 39.0299C85.6353 38.7925 85.3133 38.6592 84.9777 38.6592Z" fill="#32BFBD" stroke="#32BFBD"/>
<path d="M84.9757 44.21H68.8086C68.4729 44.21 68.151 44.3433 67.9137 44.5807C67.6763 44.818 67.543 45.1399 67.543 45.4756C67.543 45.8113 67.6763 46.1332 67.9137 46.3705C68.151 46.6079 68.4729 46.7412 68.8086 46.7412H84.9757C85.3113 46.7412 85.6333 46.6079 85.8706 46.3705C86.108 46.1332 86.2413 45.8113 86.2413 45.4756C86.2413 45.1399 86.108 44.818 85.8706 44.5807C85.6333 44.3433 85.3113 44.21 84.9757 44.21Z" fill="#32BFBD" stroke="#32BFBD"/>
<path d="M84.9777 49.6006H79.0977C78.762 49.6006 78.4401 49.7339 78.2027 49.9713C77.9654 50.2086 77.832 50.5305 77.832 50.8662C77.832 51.2019 77.9654 51.5238 78.2027 51.7611C78.4401 51.9985 78.762 52.1318 79.0977 52.1318H84.9777C85.3134 52.1318 85.6353 51.9985 85.8727 51.7611C86.11 51.5238 86.2434 51.2019 86.2434 50.8662C86.2434 50.5305 86.11 50.2086 85.8727 49.9713C85.6353 49.7339 85.3134 49.6006 84.9777 49.6006Z" fill="#32BFBD" stroke="#32BFBD"/>
<path d="M74.9337 49.6006H73.2188C72.8831 49.6006 72.5612 49.7339 72.3238 49.9713C72.0865 50.2086 71.9531 50.5305 71.9531 50.8662C71.9531 51.2019 72.0865 51.5238 72.3238 51.7611C72.5612 51.9985 72.8831 52.1318 73.2188 52.1318H74.9337C75.2693 52.1318 75.5913 51.9985 75.8286 51.7611C76.066 51.5238 76.1993 51.2019 76.1993 50.8662C76.1993 50.5305 76.066 50.2086 75.8286 49.9713C75.5913 49.7339 75.2693 49.6006 74.9337 49.6006Z" fill="#32BFBD" stroke="#32BFBD"/>
<path d="M73.2168 78.8867H41.7812C41.4456 78.8867 41.1237 79.0201 40.8863 79.2574C40.649 79.4948 40.5156 79.8167 40.5156 80.1523C40.5156 80.488 40.649 80.8099 40.8863 81.0473C41.1237 81.2846 41.4456 81.418 41.7812 81.418H73.2168C73.5525 81.418 73.8744 81.2846 74.1118 81.0473C74.3491 80.8099 74.4825 80.488 74.4825 80.1523C74.4825 79.8167 74.3491 79.4948 74.1118 79.2574C73.8744 79.0201 73.5525 78.8867 73.2168 78.8867Z" fill="#32BFBD" stroke="#32BFBD"/>
</svg>
